Coordinates
version=1
nRows=19
nColumns=24
inDegrees=yes

Units are S.I. units (second, meters, Newtons, ...)
Angles are in degrees.

endheader
time	pelvis_tilt	pelvis_list	pelvis_rotation	pelvis_tx	pelvis_ty	pelvis_tz	hip_flexion_r	hip_adduction_r	hip_rotation_r	knee_angle_r	ankle_angle_r	subtalar_angle_r	mtp_angle_r	hip_flexion_l	hip_adduction_l	hip_rotation_l	knee_angle_l	ankle_angle_l	subtalar_angle_l	mtp_angle_l	lumbar_extension	lumbar_bending	lumbar_rotation
      0.94583333	      5.52400101	     -1.86853493	     -1.08151839	     -0.38332928	      1.08158227	      0.32281788	      0.67451678	      7.20973948	     -4.31638054	     -9.20428274	     -2.07253515	    -11.33299028	      7.10719610	      8.69225767	     -2.48338906	      0.08633893	    -59.48851810	     -2.46730589	    -10.89711013	     19.18100835	     -1.33469864	      6.87031690	      2.38453035
      0.95000000	      5.50508916	     -1.85809486	     -1.16328947	     -0.37857450	      1.08202499	      0.32301322	      0.28360711	      7.21974348	     -4.14566292	     -8.95546849	     -1.95727284	    -11.33802004	      7.10293843	      9.16708408	     -2.37856193	      0.33802661	    -58.98398235	     -1.96037421	    -11.20970587	     19.03997972	     -1.31233966	      6.84519411	      2.37856675
      0.95416667	      5.47328027	     -1.83308949	     -1.30710362	     -0.37387782	      1.08242823	      0.32321801	     -0.07531295	      7.20579792	     -3.97657012	     -8.74565573	     -1.83544657	    -11.43650728	      7.09051800	      9.63601823	     -2.26049740	      0.51677311	    -58.43398230	     -1.43529793	    -11.67059393	     18.77573221	     -1.33428597	      6.82777697	      2.39258338
      0.95833333	      5.46395910	     -1.83615146	     -1.34867198	     -0.36914907	      1.08282432	      0.32348977	     -0.49893675	      7.24341131	     -3.74849149	     -8.44307392	     -1.77047484	    -11.45556114	      7.08385840	     10.08619297	     -2.18459233	      0.79054336	    -57.84854682	     -1.13960060	    -11.96757344	     18.63424231	     -1.31494084	      6.77129321	      2.43878899
      0.96250000	      5.44923217	     -1.81897282	     -1.44394261	     -0.36444249	      1.08319636	      0.32372935	     -0.90208661	      7.24653125	     -3.52700028	     -8.17364909	     -1.67839744	    -11.54462630	      7.07360254	     10.51659839	     -2.08305039	      1.00274032	    -57.20648343	     -0.73055224	    -12.40891830	     18.46160895	     -1.30502784	      6.72707523	      2.49992477
      0.96666667	      5.42776686	     -1.78961006	     -1.62813862	     -0.35980042	      1.08354330	      0.32400397	     -1.27231576	      7.22339635	     -3.30418153	     -7.96078472	     -1.59676456	    -11.75393693	      7.04810923	     10.92607841	     -1.97785300	      1.11856783	    -56.51098414	     -0.36981105	    -13.02002797	     18.09847562	     -1.38292493	      6.71110767	      2.61460513
      0.97083333	      5.39934181	     -1.79700983	     -1.65956246	     -0.35511079	      1.08383037	      0.32426270	     -1.67790854	      7.26299949	     -3.07699637	     -7.64360415	     -1.55064415	    -11.77709666	      7.03751303	     11.36140678	     -1.91361127	      1.38409257	    -55.79788810	     -0.16615361	    -13.28055426	     17.93917996	     -1.34004163	      6.67151999	      2.69013253
      0.97500000	      5.37397290	     -1.78040745	     -1.76041137	     -0.35042997	      1.08410472	      0.32451215	     -2.07151017	      7.26140778	     -2.85333523	     -7.36811041	     -1.46699085	    -11.87906470	      7.02191086	     11.76115170	     -1.82503169	      1.57309307	    -55.02816730	      0.16393724	    -13.70710355	     17.73602808	     -1.31413885	      6.62791202	      2.78015909
      0.97916667	      5.30608127	     -1.75425323	     -1.95346407	     -0.34583226	      1.08429916	      0.32483198	     -2.39009202	      7.24046462	     -2.60050116	     -7.15054013	     -1.39254742	    -12.11387290	      6.98393064	     12.18578002	     -1.74419584	      1.64976831	    -54.20767372	      0.41601199	    -14.32381904	     17.28876609	     -1.35531904	      6.60941979	      2.94672339
      0.98333333	      5.26775515	     -1.76454363	     -1.97835623	     -0.34117155	      1.08447834	      0.32503788	     -2.78226298	      7.27472697	     -2.40177633	     -6.83576974	     -1.35333945	    -12.12276182	      6.97080595	     12.59210016	     -1.68675971	      1.90810211	    -53.37457901	      0.55934987	    -14.51473691	     17.12537404	     -1.30435495	      6.59638560	      3.01858305
      0.98750000	      5.18872874	     -1.75115344	     -2.07188455	     -0.33659493	      1.08457612	      0.32511651	     -3.08727731	      7.25645298	     -2.29661921	     -6.61179053	     -1.30572584	    -12.14913160	      6.96474961	     13.02161219	     -1.59661185	      2.11331284	    -52.49198567	      0.71244534	    -14.65639303	     17.05484070	     -1.36231115	      6.61915139	      3.03911111
      0.99166667	      5.16949193	     -1.76069127	     -2.14432002	     -0.33188607	      1.08473553	      0.32546935	     -3.50926199	      7.29208252	     -2.04063890	     -6.28888810	     -1.19429006	    -12.23023543	      6.94791870	     13.36094577	     -1.56603667	      2.26518336	    -51.57599761	      1.02025822	    -15.10265827	     16.86392964	     -1.21388166	      6.54803161	      3.14330004
      0.99583333	      5.06920704	     -1.74044999	     -2.37951138	     -0.32733450	      1.08477373	      0.32582478	     -3.78768252	      7.26321491	     -1.73287131	     -6.08186111	     -1.09938839	    -12.50009228	      6.89142177	     13.75947332	     -1.52278255	      2.26380857	    -50.59266291	      1.10646154	    -15.80731878	     16.28879889	     -1.26949030	      6.51159108	      3.36107634
      1.00000000	      4.99129763	     -1.75793216	     -2.40643856	     -0.32277827	      1.08474525	      0.32587918	     -4.10909893	      7.28443641	     -1.62769686	     -5.81948402	     -1.07321424	    -12.48536049	      6.88454575	     14.16246656	     -1.47528847	      2.50848001	    -49.62129454	      1.18568057	    -15.85824290	     16.21222261	     -1.27827801	      6.56554715	      3.38345492
      1.00416667	      4.95658641	     -1.77927522	     -2.43901865	     -0.31808848	      1.08477609	      0.32610547	     -4.50903759	      7.32317299	     -1.45891780	     -5.49984766	     -0.99633886	    -12.50584390	      6.86909814	     14.48619322	     -1.45574918	      2.68351183	    -48.60227604	      1.34226936	    -16.06718807	     16.04919793	     -1.13328601	      6.55744875	      3.45660386
      1.00833333	      4.85262594	     -1.77049928	     -2.66033326	     -0.31350330	      1.08471600	      0.32645484	     -4.79266762	      7.30079853	     -1.15443417	     -5.28055177	     -0.86702753	    -12.70176362	      6.79942015	     14.84418931	     -1.44122090	      2.66448599	    -47.51610517	      1.39169412	    -16.64809940	     15.37552836	     -1.14358185	      6.48521408	      3.66812287
      1.01250000	      4.75107399	     -1.80837456	     -2.73870654	     -0.30894264	      1.08456102	      0.32666263	     -5.09759526	      7.34547789	     -0.92862360	     -5.00314815	     -0.83815811	    -12.79852793	      5.11453438	     15.22528313	     -1.45609591	      2.79017107	    -46.50349858	      2.05284835	    -16.29001085	     -0.06806240	     -1.14687189	      6.70791209	      4.76774794
      1.01666667	      4.67668195	     -1.84564108	     -2.77721343	     -0.30440107	      1.08441249	      0.32667930	     -5.41859246	      7.37514855	     -0.85027758	     -4.75735527	     -0.79526686	    -12.76720389	      5.10969091	     15.56342126	     -1.44785797	      2.98540432	    -45.38757724	      2.01153359	    -16.34186889	     -0.08597989	     -1.12117777	      6.76105428	      4.64681022
      1.02083333	      4.62003179	     -1.87640874	     -2.81088651	     -0.29971728	      1.08427336	      0.32684369	     -5.78786577	      7.41232072	     -0.73178480	     -4.44918387	     -0.70620887	    -12.74597804	      5.10135128	     15.85889908	     -1.45238406	      3.10283128	    -44.24519238	      2.00069717	    -16.49625811	     -0.11599268	     -0.99257832	      6.74885689	      4.50786810
